<?xml version="1.0"?>
<svg width="195" height="37" xmlns="http://www.w3.org/2000/svg" xmlns:svg="http://www.w3.org/2000/svg">

 <g class="layer">
  <title>Layer 1</title>
  <path d="m35.45,28.51l0,-27.91l5.66,0l0,27.91l-5.66,0z" fill="#ffffff" id="svg_1"/>
  <path d="m65.24,19.38l-15.71,0c0,1.71 0.56,3.07 1.6,4.02c1.03,1 2.35,1.48 3.98,1.48c1.28,0 2.36,-0.32 3.23,-0.96c0.88,-0.64 1.48,-1.51 1.76,-2.55l4.94,0c-0.24,1.68 -0.84,3.11 -1.83,4.27c-1.04,1.19 -2.24,2.07 -3.67,2.63c-1.44,0.6 -2.91,0.88 -4.43,0.88c-3.43,0 -6.1,-0.96 -8.05,-2.88c-1.99,-1.91 -2.95,-4.62 -2.95,-8.13c0,-2.15 0.44,-4.03 1.31,-5.7c0.88,-1.64 2.12,-2.91 3.71,-3.79c1.6,-0.88 3.47,-1.35 5.62,-1.35c2.12,0 3.99,0.47 5.59,1.39c1.59,0.96 2.79,2.19 3.62,3.79c0.84,1.59 1.28,3.35 1.28,5.26l0,1.64zm-14.15,-6.58c-0.96,0.84 -1.48,1.99 -1.56,3.51l10.13,0c-0.12,-1.48 -0.64,-2.63 -1.56,-3.47c-0.91,-0.84 -2.07,-1.28 -3.47,-1.28c-1.43,0 -2.63,0.44 -3.54,1.24z" fill="#ffffff" id="svg_2"/>
  <path d="m69.34,19.06c1.36,-1.04 3.47,-1.56 6.26,-1.56c2.56,0.04 4.31,-0.16 5.35,-0.63c0.99,-0.44 1.51,-1.2 1.51,-2.24c0,-0.79 -0.36,-1.51 -1.04,-2.15c-0.71,-0.6 -1.79,-0.92 -3.26,-0.92c-1.56,0 -2.76,0.44 -3.59,1.24c-0.88,0.84 -1.36,1.95 -1.48,3.31l-5.62,0c0.08,-1.6 0.52,-3.07 1.32,-4.43c0.79,-1.31 1.99,-2.39 3.58,-3.19c1.56,-0.79 3.47,-1.19 5.75,-1.19c3.3,0 5.78,0.75 7.45,2.27c1.64,1.51 2.47,3.43 2.47,5.78l0,13.16l-5.42,0l-0.16,-6.42l-0.2,0c-0.28,2.27 -1.11,4.03 -2.55,5.22c-1.43,1.24 -3.27,1.84 -5.46,1.84c-2.08,0 -3.79,-0.48 -5.07,-1.44c-1.27,-0.96 -1.91,-2.39 -1.91,-4.27c0,-1.83 0.68,-3.31 2.07,-4.38zm4.47,5.74c0.56,0.44 1.36,0.64 2.39,0.64c1.12,0 2.15,-0.24 3.11,-0.8c0.96,-0.52 1.72,-1.24 2.27,-2.11c0.56,-0.88 0.88,-1.8 0.88,-2.79l0,-3.15l-0.2,0c-0.16,0.87 -0.44,1.59 -0.84,2.11c-0.39,0.56 -1.07,0.96 -1.95,1.24c-0.88,0.31 -2.11,0.51 -3.71,0.59c-0.87,0.08 -1.55,0.32 -2.03,0.72c-0.48,0.44 -0.72,1 -0.72,1.72c0,0.79 0.24,1.39 0.8,1.83z" fill="#ffffff" id="svg_3"/>
  <path d="m109.85,8.65c1.31,0.88 2.35,2.15 3.11,3.79c0.71,1.67 1.11,3.59 1.11,5.78c0,2.23 -0.4,4.15 -1.11,5.78c-0.76,1.68 -1.8,2.95 -3.11,3.83c-1.32,0.88 -2.83,1.32 -4.51,1.32c-1.75,0 -3.31,-0.52 -4.66,-1.6c-1.36,-1.08 -2.36,-2.67 -2.91,-4.78l-0.24,0l0,13.07l-5.67,0l0,-27.91l5.51,0l0.16,5.79l0.24,0c0.55,-2.12 1.55,-3.71 2.91,-4.79c1.35,-1.08 2.91,-1.63 4.66,-1.63c1.68,0 3.19,0.47 4.51,1.35zm-2.95,14.71c0.95,-1.23 1.47,-2.95 1.47,-5.14c0,-2.15 -0.52,-3.87 -1.47,-5.1c-1,-1.24 -2.32,-1.88 -3.95,-1.88c-1.64,0 -2.95,0.56 -3.95,1.64c-1,1.11 -1.47,2.47 -1.47,4.14l0,2.44c0,1.67 0.47,3.03 1.47,4.1c1,1.12 2.31,1.64 3.95,1.64c1.63,0 2.95,-0.6 3.95,-1.84z" fill="#ffffff" id="svg_4"/>
  <path d="m124.81,5.06c-0.48,0.4 -0.68,1.08 -0.68,2.08l0,0.79l6.18,0l0,3.51l-6.06,0l0,17.07l-5.66,0l0,-17.07l-3.79,0l0,-3.51l3.79,0l0,-0.79c0,-2.44 0.6,-4.23 1.88,-5.39c1.27,-1.15 3.26,-1.75 5.98,-1.75c1.03,0 2.31,0.04 3.86,0.08l0,4.51c-1.43,-0.04 -2.43,-0.08 -2.91,-0.08c-1.27,0 -2.15,0.19 -2.59,0.55z" fill="#ffffff" id="svg_5"/>
  <path d="m138.84,15.83c0.32,-2.07 0.76,-3.71 1.4,-4.91c0.6,-1.15 1.47,-1.99 2.63,-2.55c1.16,-0.52 2.75,-0.79 4.79,-0.79l0,4.78c-2.24,0.16 -3.99,0.44 -5.23,0.92c-1.27,0.48 -2.19,1.23 -2.79,2.27c-0.64,1.04 -0.96,2.55 -1.04,4.47l0,8.49l-5.66,0l0,-20.58l5.5,0l0.16,7.9l0.24,0z" fill="#ffffff" id="svg_6"/>
  <path d="m153.81,27.83c-1.72,-0.88 -3.07,-2.19 -4.07,-3.87c-1,-1.67 -1.48,-3.59 -1.48,-5.82c0,-2.15 0.48,-4.03 1.48,-5.7c1,-1.64 2.35,-2.91 4.07,-3.79c1.71,-0.88 3.62,-1.35 5.7,-1.35c2.07,0 3.94,0.47 5.66,1.35c1.67,0.88 3.03,2.15 4.02,3.79c1,1.67 1.52,3.55 1.52,5.7c0,2.23 -0.52,4.15 -1.47,5.82c-1,1.68 -2.36,2.99 -4.07,3.87c-1.72,0.88 -3.59,1.32 -5.66,1.32c-2.08,0 -3.99,-0.44 -5.7,-1.32zm9.68,-4.7c0.96,-1.12 1.48,-2.8 1.48,-4.99c0,-2.11 -0.52,-3.75 -1.48,-4.86c-0.95,-1.12 -2.31,-1.68 -3.98,-1.68c-1.76,0 -3.11,0.56 -4.07,1.68c-0.96,1.11 -1.44,2.75 -1.44,4.86c0,2.19 0.48,3.87 1.44,4.99c0.96,1.15 2.31,1.71 4.07,1.71c1.67,0 3.03,-0.56 3.98,-1.71z" fill="#ffffff" id="svg_7"/>
  <path d="m194.09,8.77l-7.29,-1.27l-0.04,0.27c1.55,0.4 2.83,1.16 3.79,2.28c0.95,1.11 1.47,2.43 1.47,3.98c0,2.16 -0.84,3.83 -2.43,5.07c-1.63,1.23 -3.87,1.83 -6.74,1.83c-1.11,0 -2.19,-0.08 -3.19,-0.32c-0.64,0.2 -1.07,0.44 -1.31,0.68c-0.24,0.28 -0.36,0.64 -0.36,1.04c0,0.52 0.2,0.91 0.67,1.23c0.44,0.32 1.08,0.44 1.88,0.44l5.66,0c2.55,0 4.47,0.52 5.78,1.48c1.32,0.99 1.99,2.63 1.99,4.86c0,2.23 -0.91,3.87 -2.75,4.99c-1.83,1.11 -4.5,1.67 -8.05,1.67c-3.83,0 -6.54,-0.36 -8.13,-1.16c-1.64,-0.79 -2.44,-1.99 -2.44,-3.58c0,-2.24 1.84,-3.55 5.59,-3.87l0,-0.16c-1.6,-0.16 -2.83,-0.6 -3.67,-1.32c-0.84,-0.71 -1.24,-1.55 -1.24,-2.55c0,-1.23 0.48,-2.15 1.44,-2.79c0.96,-0.64 2.27,-0.96 3.94,-1.04l0,-0.16c-1.63,-0.47 -2.87,-1.27 -3.74,-2.39c-0.88,-1.07 -1.28,-2.39 -1.28,-3.95c0,-1.79 0.64,-3.26 1.92,-4.42c1.27,-1.16 3.42,-2.03 6.53,-2.59c3.95,-0.72 7.94,-1.56 12,-2.47l0,4.22zm-8.33,3.27c-0.72,-0.52 -1.67,-0.8 -2.91,-0.8c-1.28,0 -2.23,0.28 -2.91,0.8c-0.72,0.52 -1.04,1.2 -1.04,1.99c0,0.88 0.32,1.6 1.04,2.16c0.68,0.56 1.63,0.79 2.91,0.79c1.24,0 2.19,-0.23 2.91,-0.79c0.68,-0.56 1.04,-1.28 1.04,-2.16c0,-0.79 -0.36,-1.47 -1.04,-1.99zm-6.42,16.23c-1.27,0.44 -1.87,1.19 -1.87,2.23c0,0.8 0.44,1.44 1.35,1.84c0.88,0.43 2.36,0.63 4.35,0.63c2.07,0 3.51,-0.2 4.39,-0.59c0.87,-0.4 1.31,-1.08 1.31,-1.96c0,-0.76 -0.28,-1.31 -0.76,-1.67c-0.51,-0.32 -1.31,-0.52 -2.43,-0.52l-6.34,0.04z" fill="#ffffff" id="svg_8"/>
  <path clip-rule="evenodd" d="m0,28.21c0,-15.22 12.34,-27.55 27.57,-27.55l2.33,0l0,8.54l-2.33,0c-10.51,0 -19.03,8.51 -19.03,19.01l-8.54,0z" fill="#038E43" fill-rule="evenodd" id="svg_9"/>
 </g>
</svg>