<svg xmlns="http://www.w3.org/2000/svg" width="1187" height="670" viewBox="0 0 1187 670" version="1.1"><path d="M 2.371 178.487 C 2.159 179.044, 2.102 250.150, 2.243 336.500 L 2.500 493.500 23.500 493.500 L 44.500 493.500 45 359.659 L 45.500 225.818 51.637 229.916 C 60.836 236.059, 65.189 242.724, 70.504 258.802 C 72.013 263.368, 85.960 310.393, 101.496 363.302 L 129.743 459.500 150.059 459.500 L 170.375 459.500 199.131 360.865 C 214.946 306.616, 229.293 258.584, 231.011 254.127 C 235.543 242.377, 240.883 234.911, 248.300 229.959 L 254.500 225.818 255 359.659 L 255.500 493.500 276.750 493.770 L 298 494.040 298 335.770 L 298 177.500 289.250 177.769 C 258.331 178.718, 234.470 185.445, 220.298 197.206 C 208.657 206.867, 198.359 223.532, 191.980 243.035 C 190.277 248.241, 180.423 284.429, 170.081 323.454 C 159.740 362.478, 150.804 394.565, 150.224 394.759 C 148.899 395.200, 151.162 403.212, 128.971 319.528 C 118.121 278.613, 108.189 243.229, 105.954 237.528 C 91.146 199.752, 70.068 183.749, 29 179.102 C 15.458 177.569, 2.830 177.278, 2.371 178.487 M 360.469 178.230 C 360.204 178.929, 360.102 250.150, 360.243 336.500 L 360.500 493.500 382 493.500 L 403.500 493.500 403.500 335.500 L 403.500 177.500 382.226 177.230 C 365.750 177.021, 360.844 177.246, 360.469 178.230 M 466.001 289.730 C 466.002 384.976, 466.242 404.561, 467.546 415.764 C 470.684 442.735, 476.162 456.167, 489.484 469.557 C 498.432 478.550, 506.210 483.140, 519.626 487.343 C 537.078 492.811, 541.499 493.173, 592.922 493.343 L 640.500 493.500 640.771 473.250 L 641.041 453 597.771 452.983 C 563.446 452.969, 553.056 452.659, 547.517 451.486 C 532.886 448.387, 522.388 440.659, 516.523 428.672 C 509.366 414.043, 509.709 420.310, 509.073 292.500 L 508.500 177.500 487.250 177.230 L 466 176.960 466.001 289.730 M 780 178.050 C 742.792 181.023, 712.886 200.536, 693.558 234.453 C 688.018 244.175, 683.738 255.825, 680.776 269.250 L 678.515 279.500 678.507 386.500 L 678.500 493.500 698.750 493.771 L 719 494.041 719 435.934 L 719 377.827 724.373 372.581 C 735.370 361.845, 745.697 356.493, 762.500 352.823 C 769.889 351.209, 776.914 350.756, 801.750 350.292 L 832 349.726 832 329.863 L 832 310 805.750 310.020 C 791.313 310.031, 776.350 310.491, 772.500 311.044 C 751.875 314.002, 735.456 321.086, 723.338 332.256 L 718.733 336.500 719.283 308.500 C 719.866 278.817, 721.103 269.226, 725.904 257.184 C 734.126 236.559, 752.106 222.948, 776.322 219.018 C 779.720 218.466, 797.911 218.012, 816.746 218.008 L 850.993 218 851.246 355.750 L 851.500 493.500 872.750 493.770 L 894 494.040 894 335.520 L 894 177 841.750 177.145 C 813.013 177.225, 785.225 177.633, 780 178.050 M 957 335.419 L 957 494.040 978.250 493.770 L 999.500 493.500 999.754 355.750 L 1000.007 218 1039.373 218 C 1082.122 218, 1089.759 218.668, 1102.707 223.542 C 1118.728 229.572, 1127.906 238.486, 1133.213 253.171 L 1135.500 259.500 1136 376.500 L 1136.500 493.500 1158 493.500 L 1179.500 493.500 1179.500 379.500 C 1179.500 273.407, 1179.373 264.780, 1177.667 255.124 C 1173.208 229.878, 1163.912 212.228, 1148.476 199.697 C 1141.243 193.826, 1125.246 185.893, 1114.963 183.078 C 1096.726 178.086, 1091.585 177.764, 1022.250 177.266 L 957 176.798 957 335.419" stroke="none" fill="#ffffff" fill-rule="evenodd"/><path d="M 2.371 178.487 C 2.159 179.044, 2.102 250.150, 2.243 336.500 L 2.500 493.500 23.500 493.500 L 44.500 493.500 45 359.659 L 45.500 225.818 51.637 229.916 C 60.836 236.059, 65.189 242.724, 70.504 258.802 C 72.013 263.368, 85.960 310.393, 101.496 363.302 L 129.743 459.500 150.059 459.500 L 170.375 459.500 199.131 360.865 C 214.946 306.616, 229.293 258.584, 231.011 254.127 C 235.543 242.377, 240.883 234.911, 248.300 229.959 L 254.500 225.818 255 359.659 L 255.500 493.500 276.750 493.770 L 298 494.040 298 335.770 L 298 177.500 289.250 177.769 C 258.331 178.718, 234.470 185.445, 220.298 197.206 C 208.657 206.867, 198.359 223.532, 191.980 243.035 C 190.277 248.241, 180.423 284.429, 170.081 323.454 C 159.740 362.478, 150.804 394.565, 150.224 394.759 C 148.899 395.200, 151.162 403.212, 128.971 319.528 C 118.121 278.613, 108.189 243.229, 105.954 237.528 C 91.146 199.752, 70.068 183.749, 29 179.102 C 15.458 177.569, 2.830 177.278, 2.371 178.487 M 360.469 178.230 C 360.204 178.929, 360.102 250.150, 360.243 336.500 L 360.500 493.500 382 493.500 L 403.500 493.500 403.500 335.500 L 403.500 177.500 382.226 177.230 C 365.750 177.021, 360.844 177.246, 360.469 178.230 M 466.001 289.730 C 466.002 384.976, 466.242 404.561, 467.546 415.764 C 470.684 442.735, 476.162 456.167, 489.484 469.557 C 498.432 478.550, 506.210 483.140, 519.626 487.343 C 537.078 492.811, 541.499 493.173, 592.922 493.343 L 640.500 493.500 640.771 473.250 L 641.041 453 597.771 452.983 C 563.446 452.969, 553.056 452.659, 547.517 451.486 C 532.886 448.387, 522.388 440.659, 516.523 428.672 C 509.366 414.043, 509.709 420.310, 509.073 292.500 L 508.500 177.500 487.250 177.230 L 466 176.960 466.001 289.730 M 780 178.050 C 742.792 181.023, 712.886 200.536, 693.558 234.453 C 688.018 244.175, 683.738 255.825, 680.776 269.250 L 678.515 279.500 678.507 386.500 L 678.500 493.500 698.750 493.771 L 719 494.041 719 435.934 L 719 377.827 724.373 372.581 C 735.370 361.845, 745.697 356.493, 762.500 352.823 C 769.889 351.209, 776.914 350.756, 801.750 350.292 L 832 349.726 832 329.863 L 832 310 805.750 310.020 C 791.313 310.031, 776.350 310.491, 772.500 311.044 C 751.875 314.002, 735.456 321.086, 723.338 332.256 L 718.733 336.500 719.283 308.500 C 719.866 278.817, 721.103 269.226, 725.904 257.184 C 734.126 236.559, 752.106 222.948, 776.322 219.018 C 779.720 218.466, 797.911 218.012, 816.746 218.008 L 850.993 218 851.246 355.750 L 851.500 493.500 872.750 493.770 L 894 494.040 894 335.520 L 894 177 841.750 177.145 C 813.013 177.225, 785.225 177.633, 780 178.050 M 957 335.419 L 957 494.040 978.250 493.770 L 999.500 493.500 999.754 355.750 L 1000.007 218 1039.373 218 C 1082.122 218, 1089.759 218.668, 1102.707 223.542 C 1118.728 229.572, 1127.906 238.486, 1133.213 253.171 L 1135.500 259.500 1136 376.500 L 1136.500 493.500 1158 493.500 L 1179.500 493.500 1179.500 379.500 C 1179.500 273.407, 1179.373 264.780, 1177.667 255.124 C 1173.208 229.878, 1163.912 212.228, 1148.476 199.697 C 1141.243 193.826, 1125.246 185.893, 1114.963 183.078 C 1096.726 178.086, 1091.585 177.764, 1022.250 177.266 L 957 176.798 957 335.419" stroke="none" fill="#ffffff" fill-rule="evenodd"/><path d="M 2.371 178.487 C 2.159 179.044, 2.102 250.150, 2.243 336.500 L 2.500 493.500 23.500 493.500 L 44.500 493.500 45 359.659 L 45.500 225.818 51.637 229.916 C 60.836 236.059, 65.189 242.724, 70.504 258.802 C 72.013 263.368, 85.960 310.393, 101.496 363.302 L 129.743 459.500 150.059 459.500 L 170.375 459.500 199.131 360.865 C 214.946 306.616, 229.293 258.584, 231.011 254.127 C 235.543 242.377, 240.883 234.911, 248.300 229.959 L 254.500 225.818 255 359.659 L 255.500 493.500 276.750 493.770 L 298 494.040 298 335.770 L 298 177.500 289.250 177.769 C 258.331 178.718, 234.470 185.445, 220.298 197.206 C 208.657 206.867, 198.359 223.532, 191.980 243.035 C 190.277 248.241, 180.423 284.429, 170.081 323.454 C 159.740 362.478, 150.804 394.565, 150.224 394.759 C 148.899 395.200, 151.162 403.212, 128.971 319.528 C 118.121 278.613, 108.189 243.229, 105.954 237.528 C 91.146 199.752, 70.068 183.749, 29 179.102 C 15.458 177.569, 2.830 177.278, 2.371 178.487 M 360.469 178.230 C 360.204 178.929, 360.102 250.150, 360.243 336.500 L 360.500 493.500 382 493.500 L 403.500 493.500 403.500 335.500 L 403.500 177.500 382.226 177.230 C 365.750 177.021, 360.844 177.246, 360.469 178.230 M 466.001 289.730 C 466.002 384.976, 466.242 404.561, 467.546 415.764 C 470.684 442.735, 476.162 456.167, 489.484 469.557 C 498.432 478.550, 506.210 483.140, 519.626 487.343 C 537.078 492.811, 541.499 493.173, 592.922 493.343 L 640.500 493.500 640.771 473.250 L 641.041 453 597.771 452.983 C 563.446 452.969, 553.056 452.659, 547.517 451.486 C 532.886 448.387, 522.388 440.659, 516.523 428.672 C 509.366 414.043, 509.709 420.310, 509.073 292.500 L 508.500 177.500 487.250 177.230 L 466 176.960 466.001 289.730 M 780 178.050 C 742.792 181.023, 712.886 200.536, 693.558 234.453 C 688.018 244.175, 683.738 255.825, 680.776 269.250 L 678.515 279.500 678.507 386.500 L 678.500 493.500 698.750 493.771 L 719 494.041 719 435.934 L 719 377.827 724.373 372.581 C 735.370 361.845, 745.697 356.493, 762.500 352.823 C 769.889 351.209, 776.914 350.756, 801.750 350.292 L 832 349.726 832 329.863 L 832 310 805.750 310.020 C 791.313 310.031, 776.350 310.491, 772.500 311.044 C 751.875 314.002, 735.456 321.086, 723.338 332.256 L 718.733 336.500 719.283 308.500 C 719.866 278.817, 721.103 269.226, 725.904 257.184 C 734.126 236.559, 752.106 222.948, 776.322 219.018 C 779.720 218.466, 797.911 218.012, 816.746 218.008 L 850.993 218 851.246 355.750 L 851.500 493.500 872.750 493.770 L 894 494.040 894 335.520 L 894 177 841.750 177.145 C 813.013 177.225, 785.225 177.633, 780 178.050 M 957 335.419 L 957 494.040 978.250 493.770 L 999.500 493.500 999.754 355.750 L 1000.007 218 1039.373 218 C 1082.122 218, 1089.759 218.668, 1102.707 223.542 C 1118.728 229.572, 1127.906 238.486, 1133.213 253.171 L 1135.500 259.500 1136 376.500 L 1136.500 493.500 1158 493.500 L 1179.500 493.500 1179.500 379.500 C 1179.500 273.407, 1179.373 264.780, 1177.667 255.124 C 1173.208 229.878, 1163.912 212.228, 1148.476 199.697 C 1141.243 193.826, 1125.246 185.893, 1114.963 183.078 C 1096.726 178.086, 1091.585 177.764, 1022.250 177.266 L 957 176.798 957 335.419" stroke="none" fill="#ffffff" fill-rule="evenodd"/></svg>